<mxfile host="app.diagrams.net" modified="2023-12-18T13:19:59.322Z" agent="Mozilla/5.0 (X11; Ubuntu; Linux x86_64; rv:109.0) Gecko/20100101 Firefox/116.0" etag="dCJRtZvP8ya9PreGIn8g" version="22.1.11" type="github">
  <diagram name="第 1 页" id="s4GLsq8qBhcVc7H4nXFk">
    <mxGraphModel dx="988" dy="623" grid="1" gridSize="10" guides="1" tooltips="1" connect="1" arrows="1" fold="1" page="1" pageScale="1" pageWidth="827" pageHeight="1169" math="1" shadow="0">
      <root>
        <mxCell id="0" />
        <mxCell id="1" parent="0" />
        <mxCell id="tNZGAiagAWBYlPhmApm7-45" style="edgeStyle=none;rounded=0;orthogonalLoop=1;jettySize=auto;html=1;entryX=0;entryY=0.5;entryDx=0;entryDy=0;shadow=1;" edge="1" parent="1" source="tNZGAiagAWBYlPhmApm7-43" target="tNZGAiagAWBYlPhmApm7-44">
          <mxGeometry relative="1" as="geometry" />
        </mxCell>
        <mxCell id="tNZGAiagAWBYlPhmApm7-43" value="" style="html=1;shape=mxgraph.basic.isocube;isoAngle=15;flipH=1;flipV=0;fillColor=#d5e8d4;strokeColor=#82b366;shadow=1;" vertex="1" parent="1">
          <mxGeometry x="25" y="85" width="60" height="70" as="geometry" />
        </mxCell>
        <mxCell id="tNZGAiagAWBYlPhmApm7-52" style="edgeStyle=none;rounded=0;orthogonalLoop=1;jettySize=auto;html=1;entryX=0;entryY=0;entryDx=0;entryDy=0;shadow=1;" edge="1" parent="1" source="tNZGAiagAWBYlPhmApm7-44" target="tNZGAiagAWBYlPhmApm7-48">
          <mxGeometry relative="1" as="geometry" />
        </mxCell>
        <mxCell id="tNZGAiagAWBYlPhmApm7-44" value="巻积神经网络" style="rounded=1;whiteSpace=wrap;html=1;fillColor=#e1d5e7;strokeColor=#9673a6;shadow=1;" vertex="1" parent="1">
          <mxGeometry x="165" y="90" width="120" height="60" as="geometry" />
        </mxCell>
        <mxCell id="tNZGAiagAWBYlPhmApm7-50" value="" style="group;fillColor=#d5e8d4;strokeColor=#82b366;shadow=1;" vertex="1" connectable="0" parent="1">
          <mxGeometry x="375" y="80" width="20" height="80" as="geometry" />
        </mxCell>
        <mxCell id="tNZGAiagAWBYlPhmApm7-46" value="" style="rounded=0;whiteSpace=wrap;html=1;fillColor=#d5e8d4;strokeColor=#82b366;shadow=1;" vertex="1" parent="tNZGAiagAWBYlPhmApm7-50">
          <mxGeometry width="20" height="20" as="geometry" />
        </mxCell>
        <mxCell id="tNZGAiagAWBYlPhmApm7-47" value="" style="rounded=0;whiteSpace=wrap;html=1;fillColor=#d5e8d4;strokeColor=#82b366;shadow=1;" vertex="1" parent="tNZGAiagAWBYlPhmApm7-50">
          <mxGeometry y="20" width="20" height="20" as="geometry" />
        </mxCell>
        <mxCell id="tNZGAiagAWBYlPhmApm7-48" value="" style="rounded=0;whiteSpace=wrap;html=1;fillColor=#d5e8d4;strokeColor=#82b366;shadow=1;" vertex="1" parent="tNZGAiagAWBYlPhmApm7-50">
          <mxGeometry y="40" width="20" height="20" as="geometry" />
        </mxCell>
        <mxCell id="tNZGAiagAWBYlPhmApm7-49" value="" style="rounded=0;whiteSpace=wrap;html=1;fillColor=#d5e8d4;strokeColor=#82b366;shadow=1;" vertex="1" parent="tNZGAiagAWBYlPhmApm7-50">
          <mxGeometry y="60" width="20" height="20" as="geometry" />
        </mxCell>
        <mxCell id="tNZGAiagAWBYlPhmApm7-55" style="edgeStyle=none;rounded=0;orthogonalLoop=1;jettySize=auto;html=1;entryX=0;entryY=0;entryDx=0;entryDy=0;shadow=1;" edge="1" parent="1" source="tNZGAiagAWBYlPhmApm7-54" target="tNZGAiagAWBYlPhmApm7-57">
          <mxGeometry relative="1" as="geometry">
            <mxPoint x="695.8" y="120" as="targetPoint" />
          </mxGeometry>
        </mxCell>
        <mxCell id="tNZGAiagAWBYlPhmApm7-54" value="全连接神经网络" style="rounded=1;whiteSpace=wrap;html=1;fillColor=#e1d5e7;strokeColor=#9673a6;shadow=1;" vertex="1" parent="1">
          <mxGeometry x="485" y="90" width="120" height="60" as="geometry" />
        </mxCell>
        <mxCell id="tNZGAiagAWBYlPhmApm7-53" style="edgeStyle=none;rounded=0;orthogonalLoop=1;jettySize=auto;html=1;exitX=1;exitY=0;exitDx=0;exitDy=0;entryX=0;entryY=0.5;entryDx=0;entryDy=0;shadow=1;" edge="1" parent="1" source="tNZGAiagAWBYlPhmApm7-48" target="tNZGAiagAWBYlPhmApm7-54">
          <mxGeometry relative="1" as="geometry">
            <mxPoint x="485" y="120" as="targetPoint" />
          </mxGeometry>
        </mxCell>
        <mxCell id="tNZGAiagAWBYlPhmApm7-58" value="" style="group;fillColor=#d5e8d4;strokeColor=#82b366;shadow=1;" vertex="1" connectable="0" parent="1">
          <mxGeometry x="695" y="100" width="20" height="40" as="geometry" />
        </mxCell>
        <mxCell id="tNZGAiagAWBYlPhmApm7-56" value="" style="rounded=0;whiteSpace=wrap;html=1;fillColor=#d5e8d4;strokeColor=#82b366;shadow=1;" vertex="1" parent="tNZGAiagAWBYlPhmApm7-58">
          <mxGeometry width="20" height="20" as="geometry" />
        </mxCell>
        <mxCell id="tNZGAiagAWBYlPhmApm7-57" value="" style="rounded=0;whiteSpace=wrap;html=1;fillColor=#d5e8d4;strokeColor=#82b366;shadow=1;" vertex="1" parent="tNZGAiagAWBYlPhmApm7-58">
          <mxGeometry y="20" width="20" height="20" as="geometry" />
        </mxCell>
        <mxCell id="tNZGAiagAWBYlPhmApm7-63" value="`S`" style="text;strokeColor=none;align=center;fillColor=none;html=1;verticalAlign=middle;whiteSpace=wrap;rounded=0;" vertex="1" parent="1">
          <mxGeometry x="25" y="170" width="60" height="30" as="geometry" />
        </mxCell>
        <mxCell id="tNZGAiagAWBYlPhmApm7-65" value="特征向量" style="text;strokeColor=none;align=center;fillColor=none;html=1;verticalAlign=middle;whiteSpace=wrap;rounded=0;" vertex="1" parent="1">
          <mxGeometry x="355" y="170" width="60" height="30" as="geometry" />
        </mxCell>
        <mxCell id="tNZGAiagAWBYlPhmApm7-67" value="`a`" style="text;strokeColor=none;align=center;fillColor=none;html=1;verticalAlign=middle;whiteSpace=wrap;rounded=0;" vertex="1" parent="1">
          <mxGeometry x="675" y="170" width="60" height="30" as="geometry" />
        </mxCell>
      </root>
    </mxGraphModel>
  </diagram>
</mxfile>
